<svg xmlns="http://www.w3.org/2000/svg" xmlns:xlink="http://www.w3.org/1999/xlink" width="212.59" height="59.13" viewBox="468.86095818509176 599.1323136035139 216.58567089485376 63.125362337931165"><defs><path id="a" d="M581.89 604.6c.46 2.95-1.99 5.79-5.48 6.35-3.49.54-6.69-1.42-7.15-4.38-.47-2.95 1.98-5.79 5.47-6.35 3.49-.54 6.69 1.41 7.16 4.38"/><path id="b" d="M573.28 614.07s3.81.6 3.62 5.24c0 0-.01 1.33-1.47 4.77-.62 1.5-5.61 13.51-6.23 15.01 0 0-1.83 4.25.46 3.85 1.79-.31 3.77-2.54 3.77-2.54.3-.31 2.71-2.78 3.01-3.08 0 0 1.23-1.39 1.92-.38.69.99-.69 2.61-.69 2.61s-4.16 4.93-10.55 8.16c-4.62 2.16-8.31 1.46-8.31 1.46s-5.16-.77-2.7-8c0 0 2.01-5.93 3.62-9.09 1.62-3.15 4.86-11.01 4.86-11.01s.68-1.7-.39-2.23c-1.24-.6-4.54 2.62-4.54 2.62-.31.3-2.78 2.7-3.08 3 0 0-1.16 1.47-2.08.62-.93-.85 1.23-3.08 1.23-3.08s4.7-5.38 9.93-7.16c4.8-1.64 7.62-.77 7.62-.77"/><path id="c" d="M491.3 620.41v-7.46h-21.44v32.89h21.44v-7.46h-12.89v-5.59h11.08v-6.8h-11.07v-5.58h12.88Z"/><path id="d" d="M527.94 645.62c1.41.22 5.61 1.13 11.01.68 4.76-.41 10.73-3.22 10.83-10.69.05-3.23-.94-6.97-5.62-8.82l-7.02-2.5c-.76-.31-1.38-.99-1.41-1.61-.04-1.23.95-2.37 3.17-2.65 1.98-.24 5.08.07 8.92.96 0-.76-.04-6.88-.04-7.65-1.33-.36-4.51-1.18-8.79-1.31-5.67-.18-11.34 3.47-11.69 10.57-.18 3.52 1.43 7.46 5.59 8.96.64.23 5.82 2.11 6.47 2.35 1.6.69 1.66 1.37 1.7 1.91.07 1-.89 1.75-2.16 2.25-1.68.66-6.65.7-10.93-.59-.01 1.63-.03 6.51-.03 8.14Z"/><path id="e" d="M497.73 612.95v32.9h12.81c10.57 0 12.31-6.46 12.31-9.06 0-3.87-1.64-6.15-4.27-7.38 2.26-1.22 3.82-3.54 3.82-7.14 0-3.09-1.96-9.32-11.95-9.32h-12.72m8.56 19.5c3.79-.65 7.94.38 7.94 3.06s-4.15 3.71-7.94 3.05v-6.11m0-12.12c3.79-.66 7.94.36 7.94 3.05 0 2.68-4.15 3.7-7.94 3.05v-6.1Z"/><path id="f" d="M591.04 629.72c0-16.32 13.23-29.55 29.55-29.55 16.31 0 29.54 13.23 29.54 29.55 0 16.31-13.23 29.54-29.54 29.54-16.32 0-29.55-13.23-29.55-29.54"/><path id="g" d="M656.26 629.72c0-7.24 5.86-13.1 13.09-13.1 7.24 0 13.1 5.86 13.1 13.1 0 7.22-5.86 13.09-13.1 13.09-7.23 0-13.09-5.87-13.09-13.09"/><path id="h" d="M623.94 629.76c0-7.23 5.86-13.09 13.1-13.09 7.23 0 13.09 5.86 13.09 13.09 0 7.23-5.86 13.09-13.09 13.09-7.24 0-13.1-5.86-13.1-13.09"/><path id="i" d="M607.54 629.78c0-7.22 5.86-13.09 13.09-13.09 7.23 0 13.09 5.87 13.09 13.09 0 7.24-5.86 13.1-13.09 13.1-7.23 0-13.09-5.86-13.09-13.1"/><path id="j" d="M623.94 629.77c0 4.13 1.92 7.81 4.91 10.22 2.97-2.41 4.87-6.08 4.87-10.2 0-4.13-1.92-7.81-4.91-10.21-2.97 2.4-4.87 6.07-4.87 10.19"/></defs><use xlink:href="#a" fill="#99d64b"/><use xlink:href="#a" fill-opacity="0" stroke="#000" stroke-opacity="0"/><use xlink:href="#b" fill="#99d64b"/><use xlink:href="#b" fill-opacity="0" stroke="#000" stroke-opacity="0"/><use xlink:href="#c" fill="#22578d"/><use xlink:href="#c" fill-opacity="0" stroke="#000" stroke-opacity="0"/><use xlink:href="#d" fill="#22578d"/><use xlink:href="#d" fill-opacity="0" stroke="#000" stroke-opacity="0"/><use xlink:href="#e" fill="#22578d"/><use xlink:href="#e" fill-opacity="0" stroke="#000" stroke-opacity="0"/><use xlink:href="#f" fill="#22578d"/><use xlink:href="#f" fill-opacity="0" stroke="#000" stroke-opacity="0"/><use xlink:href="#g" fill="#22578d"/><use xlink:href="#g" fill-opacity="0" stroke="#000" stroke-opacity="0"/><use xlink:href="#h" fill="#f68712"/><use xlink:href="#h" fill-opacity="0" stroke="#000" stroke-opacity="0"/><use xlink:href="#i" fill="#99d64b"/><use xlink:href="#i" fill-opacity="0" stroke="#000" stroke-opacity="0"/><use xlink:href="#j" fill="#fff"/><use xlink:href="#j" fill-opacity="0" stroke="#000" stroke-opacity="0"/></svg>