<svg xmlns="http://www.w3.org/2000/svg" width="810.5" height="147.244" viewBox="0 0 214.445 38.958"><defs><linearGradient id="a" x1="0" x2="1" y1="0" y2="0" gradientTransform="translate(97.373 19.368) scale(78.3306)" gradientUnits="userSpaceOnUse" spreadMethod="pad"><stop offset="0" stop-color="#07e872"/><stop offset="1" stop-color="#386af9"/></linearGradient></defs><path fill="url(#a)" d="M143.706 6.021c-3.874 3.85-7.734 7.712-11.593 11.574a8078.98 8078.98 0 0 1-8.788 8.786l-.031.03c-3.142 2.657-5.814 3.457-9.228 2.761-4.23-.86-7.321-4.288-7.878-8.733-.503-4.011 1.713-8.118 5.39-9.989 3.854-1.96 8.383-1.285 11.537 1.719.837.795 1.95 1.896 2.761 2.726a3.207 3.207 0 0 0 4.19.34l1.687-1.663c.785-.837 1.167-1.436 1.24-2.357a3.2 3.2 0 0 0-.903-2.493 93.922 93.922 0 0 0-3.317-3.256C125.09 2.06 120.147.302 115.061.608c-5.13.295-9.768 2.566-13.057 6.395-3.415 3.978-5.03 9.016-4.548 14.19.474 5.081 2.924 9.633 6.899 12.818a18.835 18.835 0 0 0 11.8 4.15c4.826 0 9.628-1.847 13.28-5.484 3.008-2.997 6.01-6 9.01-9.002l.431-.431c3.658-3.659 7.316-7.319 10.988-10.966 2.573-2.56 5.72-3.457 9.355-2.66 4.069.888 7.152 4.36 7.673 8.637.503 4.13-1.687 8.183-5.447 10.084-3.804 1.92-8.395 1.233-11.423-1.716a127.181 127.181 0 0 1-2.774-2.8 3.208 3.208 0 0 0-2.44-.97 3.197 3.197 0 0 0-2.34 1.183l-1.643 1.63c-.998 1.233-.983 2.985.099 4.141 1.24 1.324 2.586 2.727 4.033 4.013 3.228 2.865 7.22 4.323 11.91 4.333 8.797 0 16.527-6.133 18.379-14.584 1.929-8.805-2.374-17.56-10.465-21.291a18.614 18.614 0 0 0-7.8-1.704c-4.871 0-9.689 1.886-13.275 5.447"/><path fill="#002475" d="M9.226 35.427c0 1.933-.967 2.9-2.9 2.9H2.899C.966 38.326 0 37.36 0 35.426V3.532c0-1.933.966-2.9 2.9-2.9h3.426c1.933 0 2.9.967 2.9 2.9zm46.868-32C56.27 1.564 57.272.632 59.1.632h4.745c1.652 0 2.741.791 3.268 2.373l4.692 13.549a66.037 66.037 0 0 1 1.266 4.006l.632 2.214h.106l.633-2.214a65.093 65.093 0 0 1 1.265-4.007l4.691-13.548c.528-1.582 1.617-2.373 3.27-2.373h4.744c1.827 0 2.829.932 3.005 2.795L94 35.321c.07.95-.132 1.687-.606 2.215-.475.527-1.186.79-2.135.79H87.83c-1.828 0-2.83-.93-3.005-2.793l-.949-14.182a28.405 28.405 0 0 1-.132-2.189 24.812 24.812 0 0 1 .027-2.028c0-.703.034-1.406.105-2.11h-.105c-.247.774-.493 1.53-.738 2.268l-.686 2.055a122.6 122.6 0 0 1-.685 2.004l-3.11 8.593c-.563 1.547-1.67 2.32-3.321 2.32h-2.953c-1.652 0-2.76-.773-3.322-2.32l-3.11-8.593a107.74 107.74 0 0 1-.685-2.004l-.686-2.055c-.246-.738-.492-1.494-.738-2.268h-.105c0 .704.017 1.407.053 2.11 0 .597.008 1.273.026 2.028.017.757-.009 1.486-.079 2.189l-.949 14.182c-.176 1.862-1.178 2.793-3.005 2.793H56.2c-.948 0-1.66-.263-2.134-.79-.475-.528-.677-1.266-.607-2.215zM180.354 19.4c0-2.74.483-5.29 1.45-7.644s2.32-4.402 4.06-6.142c1.739-1.74 3.821-3.11 6.247-4.112C194.535.501 197.207 0 200.124 0c1.44 0 2.776.114 4.006.343a23.74 23.74 0 0 1 3.375.869c1.018.352 1.915.738 2.688 1.16.773.422 1.44.826 2.004 1.213.738.526 1.15 1.133 1.238 1.819.088.685-.114 1.415-.606 2.188l-1.318 2.161c-.493.809-1.073 1.265-1.74 1.37-.668.106-1.406-.087-2.214-.58-.879-.491-1.915-.965-3.11-1.423-1.196-.457-2.497-.686-3.902-.686-1.897 0-3.514.31-4.85.923-1.336.616-2.434 1.424-3.295 2.425a9.631 9.631 0 0 0-1.898 3.427 13.152 13.152 0 0 0-.606 3.98c0 1.406.211 2.786.633 4.138a10.696 10.696 0 0 0 1.95 3.639c.878 1.072 1.985 1.932 3.322 2.583 1.335.65 2.917.975 4.744.975 1.582 0 3.032-.29 4.35-.87 1.318-.58 2.433-1.186 3.348-1.82 1.65-1.159 3.005-.982 4.059.529l1.476 2.055c.492.738.712 1.459.659 2.162-.053.703-.431 1.336-1.134 1.897-.597.458-1.317.95-2.161 1.477a18.215 18.215 0 0 1-2.926 1.45 24.05 24.05 0 0 1-3.69 1.107c-1.354.297-2.82.447-4.402.447-3.023 0-5.755-.491-8.198-1.475-2.443-.984-4.526-2.355-6.247-4.112-1.723-1.757-3.04-3.822-3.954-6.195-.914-2.372-1.37-4.963-1.37-7.775"/><path fill="#07e872" d="M45.255 24.916H37.83a1.724 1.724 0 0 1-1.724-1.724v-7.426c0-.952.772-1.723 1.724-1.723h7.425c.952 0 1.724.771 1.724 1.723v7.426c0 .952-.772 1.724-1.724 1.724"/><path fill="#002475" d="M14.093 20.01a2.475 2.475 0 0 1 .047-2.195l1.373-2.633L22.21 2.688c.772-1.37 1.915-2.056 3.427-2.056h3.585c1.16 0 1.932.325 2.319.975.386.65.298 1.486-.263 2.504l-8.224 14.55v.106l8.856 16.08c.562 1.02.65 1.854.264 2.504-.388.65-1.16.975-2.32.975h-4.06c-1.51 0-2.653-.685-3.426-2.056l-6.854-13.232z"/></svg>