<svg width="1200" height="340" viewBox="0 0 1200 340" fill="none" xmlns="http://www.w3.org/2000/svg">
<g clip-path="url(#clip0_32_17)">
<path d="M337.678 81.5482C360.792 81.5482 379.529 63.293 379.529 40.7741C379.529 18.2552 360.792 0 337.678 0C314.565 0 295.827 18.2552 295.827 40.7741C295.827 63.293 314.565 81.5482 337.678 81.5482Z" fill="#0E1216"/>
<path d="M395.645 284.88C372.171 310.795 336.817 339.688 295.827 339.688C272.569 339.688 258.643 319.409 258.643 298.914C258.643 261.55 281.901 203.799 281.901 186.821C281.901 180.038 277.235 173.218 267.939 173.218C253.977 173.218 247.767 178.566 247.767 178.566L242.168 166.901C242.168 166.901 288.721 112.093 324.577 112.093C343.17 112.093 351.676 122.286 351.676 146.047C351.676 171.208 333.084 247.947 333.084 271.708C333.084 282.081 340.263 285.311 350.313 285.311C362.408 285.311 376.227 278.24 388.431 269.734L395.681 284.844L395.645 284.88Z" fill="#0E1216"/>
<path d="M873.915 294.679C921.293 294.679 953.884 278.527 978.686 257.781L987.838 274.22C969.928 294.894 911.854 339.688 838.453 339.688C773.344 339.688 736.267 309.287 736.267 258.176C736.267 186.857 796.602 108.719 890.498 108.719C929.872 108.719 954.709 131.654 954.709 163.06C954.709 241.199 875.853 278.563 801.448 271.744V258.14C834.002 258.14 885.149 217.366 885.149 176.628C885.149 166.434 880.34 156.241 866.378 156.241C838.489 156.241 810.78 198.702 810.78 244.537C810.78 277.092 824.563 294.643 873.951 294.643L873.915 294.679Z" fill="#0E1216"/>
<path d="M1200 203.332C1200 143.75 1163.14 108.683 1102.37 108.683C1017.84 108.683 962.893 168.085 962.893 254.73C962.893 309.072 1007.08 339.652 1060.52 339.652C1153.52 339.652 1200 281.435 1200 203.332ZM1069.82 292.131C1051.22 292.131 1037.26 278.527 1037.26 244.573C1037.26 202.291 1061.96 156.277 1093.08 156.277C1114.79 156.277 1125.63 173.254 1125.63 203.835C1125.63 246.116 1103.02 292.131 1069.82 292.131Z" fill="#0E1216"/>
<path d="M217.474 109.544C170.167 109.544 147.77 170.706 147.77 170.706L151.431 176.018C155.631 173.505 160.656 170.706 166.47 170.706C172.787 170.706 178.028 175.372 178.028 187.683C178.028 208.07 154.733 258.176 133.808 258.176C124.512 258.176 120.348 243.101 114.318 215.859C112.272 207.89 108.683 187.467 103.479 154.662C98.6331 124.26 95.1874 112.093 78.0307 112.093C38.6564 112.093 0 166.937 0 166.937L5.59926 178.602C9.7987 176.089 14.7878 173.254 22.1099 173.254C36.0721 173.254 37.472 188.76 45.476 217.474C52.6905 243.819 59.7972 269.698 67.1193 296.509C74.4773 323.321 89.5881 339.688 108.181 339.688C136.069 339.688 162.917 316.035 199.384 268.836C216.361 247.085 234.236 217.869 243.604 197.302C253.079 176.556 254.659 158.897 254.659 150.785C254.659 127.24 245.362 109.544 217.474 109.544Z" fill="#0E1216"/>
<path d="M744.809 273.502C734.077 280.286 723.058 285.347 714.3 285.347C706.655 285.347 700.338 281.937 700.338 264.96C700.338 241.199 721.263 206.742 721.263 159.651C721.263 122.286 702.671 112.093 674.782 112.093C646.894 112.093 609.673 135.854 588.138 173.218C588.532 168.624 588.748 164.137 588.748 159.615C588.748 129.034 579.451 112.057 546.897 112.057C514.342 112.057 485.7 140.304 465.887 173.182C467.107 163.994 467.825 155.056 467.825 146.011C467.825 122.25 456.196 112.057 437.604 112.057C407.669 112.057 359.286 166.865 359.286 166.865L364.885 178.53C364.885 178.53 372.746 173.182 384.123 173.182C393.42 173.182 398.086 179.966 398.086 186.786C398.086 207.173 379.493 244.537 379.493 271.708C379.493 319.265 402.752 339.652 453.899 339.652C450.202 330.859 444.603 316.179 444.603 292.095C444.603 227.56 477.157 183.412 498.083 183.412C509.748 183.412 514.342 191.918 514.342 207.173C514.342 230.934 500.38 254.73 500.38 281.901C500.38 326.049 518.972 339.652 574.785 339.652C570.119 332.869 565.489 315.497 565.489 298.878C565.489 241.45 593.45 183.376 623.6 183.376C633.291 183.376 640.29 192.134 639.859 207.316C639.859 230.934 621.266 271.672 621.266 302.252C621.266 319.229 630.563 339.617 658.451 339.617C686.34 339.617 713.941 326.911 740.897 303.76C746.137 299.201 751.054 294.499 755.685 289.654L744.773 273.43L744.809 273.502Z" fill="#0E1216"/>
</g>
<defs>
<clipPath id="clip0_32_17">
<rect width="1200" height="339.688" fill="white"/>
</clipPath>
</defs>
</svg>
